<svg width="512" height="512" viewBox="0 0 512 512" role="img" xmlns="http://www.w3.org/2000/svg">
<title>FaturaScan logo</title>
<desc>FaturaScan app logo</desc>

<rect width="512" height="512" rx="96" fill="#0f0f0d"/>

<g transform="translate(156, 55)">
  <rect x="0" y="0" width="200" height="252" rx="10" fill="none" stroke="#c8f060" stroke-width="9"/>
  <polyline points="128,0 200,72" fill="none" stroke="#c8f060" stroke-width="9" stroke-linecap="round"/>
  <polyline points="128,0 128,72 200,72" fill="none" stroke="#c8f060" stroke-width="4" stroke-dasharray="8,6" opacity="0.45" stroke-linecap="round"/>
  <rect x="24" y="110" width="44" height="44" rx="5" fill="#c8f060"/>
  <rect x="78" y="110" width="19" height="19" rx="3" fill="#c8f060" opacity="0.75"/>
  <rect x="103" y="110" width="19" height="19" rx="3" fill="#c8f060" opacity="0.75"/>
  <rect x="24" y="163" width="19" height="19" rx="3" fill="#c8f060" opacity="0.75"/>
  <rect x="51" y="155" width="34" height="34" rx="5" fill="#c8f060"/>
  <rect x="94" y="137" width="50" height="9" rx="3" fill="#c8f060" opacity="0.4"/>
  <rect x="94" y="153" width="36" height="9" rx="3" fill="#c8f060" opacity="0.4"/>
  <rect x="94" y="169" width="44" height="9" rx="3" fill="#c8f060" opacity="0.4"/>
  <line x1="0" y1="218" x2="200" y2="218" stroke="#c8f060" stroke-width="5" opacity="0.25" stroke-linecap="round"/>
  <circle cx="100" cy="218" r="9" fill="#c8f060" opacity="0.8"/>
</g>

<text x="256" y="406" font-family="Georgia, serif" font-size="52" font-weight="700" fill="#c8f060" text-anchor="middle" letter-spacing="-1">fatura<tspan font-weight="300" font-style="italic" fill="#4a4a42">scan</tspan></text>

</svg>
